PathFileType	4	(X/Y/Z)	C:/Users/beibeiliu/ov580/test_trc/User3\sequence.24_training_dense_right.trc
DataRate	CameraRate	NumFrames	NumMarkers	Units	OrigDataRate	OrigDataStartFrame	OrigNumFrames
120	120	14	19	mm	120	35	275
Frame#	Time	ThumbCMC			ThumbMCP			ThumbIP			ThumbTip			IndexMCP			IndexPIP			IndexTip			MiddleMCP			MiddlePIP			MiddleTip			RingMCP			RingPIP			RingTip			PinkyMCP			PinkyPIP			PinkyTip			BackHand1			BackHand2			BackHand3	
		X0	Y0	Z0	X1	Y1	Z1	X2	Y2	Z2	X3	Y3	Z3	X4	Y4	Z4	X5	Y5	Z5	X6	Y6	Z6	X7	Y7	Z7	X8	Y8	Z8	X9	Y9	Z9	X10	Y10	Z10	X11	Y11	Z11	X12	Y12	Z12	X13	Y13	Z13	X14	Y14	Z14	X15	Y15	Z15	X16	Y16	Z16	X17	Y17	Z17	X18	Y18	Z18	
34	0.283333	181.862	29.5688	18.5329	156.11	36.1695	-2.30755	139.314	36.9621	-20.3431	121.079	41.8457	-39.9763	183.032	16.3118	-56.3816	164.383	19.4345	-82.3417	147.191	13.9124	-95.7596	176.194	-1.05865	-61.8263	148.215	-5.28708	-72.5952	112.809	-8.34488	-54.8398	176.298	-21.3102	-52.0908	149.572	-26.9941	-59.5884	119.924	-22.6103	-40.1633	179.854	-40.1495	-38.5611	154.881	-44.4881	-47.869	130.063	-35.8907	-37.9163	214.276	-19.7228	-5.26895	221.497	-18.0413	23.0104	213.287	15.1898	4.91516	
35	0.291667	184.125	31.6479	22.4112	157.556	38.1358	-3.41408	138.559	43.6451	-21.551	124.54	41.6958	-38.8688	183.504	22.9251	-59.3187	167.582	18.5412	-77.7299	147.788	19.1965	-95.1684	175.632	-0.94872	-62.2516	145.377	-2.85767	-71.0254	114.16	-5.35029	-51.8027	175.767	-21.6976	-49.9815	143.709	-20.0399	-57.4528	119.182	-19.0575	-33.9524	176.72	-36.8918	-40.3522	154.776	-38.648	-46.4778	129.123	-29.9066	-32.2223	215.796	-14.6684	-6.75031	222.445	-17.503	25.0325	216.005	13.8162	6.1823	
36	0.3	185.39	33.885	18.2606	160.19	38.4937	0.0279808	139.746	45.2224	-26.0674	124.807	46.4312	-39.362	185.863	20.9618	-57.8411	169.056	24.4418	-79.3046	149.152	19.2973	-93.9117	176.156	4.29506	-61.3406	146.628	1.02101	-68.8902	113.062	4.73373	-46.8562	175.35	-17.2575	-49.808	142.331	-17.1981	-54.1597	121.787	-11.2437	-30.5182	176.911	-36.7393	-36.3053	146.304	-34.7915	-44.2764	129.338	-24.6071	-31.8248	213.727	-14.4887	-6.39901	221.97	-15.3511	19.5776	217.476	15.6282	8.91895	
37	0.308333	186.895	34.0127	21.8923	160.763	42.3652	0.0545755	140.136	48.0192	-26.2921	125.289	48.1885	-40.7038	186.878	23.399	-56.1633	170.692	23.1715	-78.272	149.06	26.7999	-95.9265	177.127	3.54556	-61.0314	145.463	2.03694	-67.3295	116.222	5.53697	-41.9908	175.911	-16.1004	-50.5079	141.78	-13.6253	-52.8434	124.452	-5.8772	-29.9566	174.165	-35.3098	-38.2347	145.91	-30.5669	-42.7493	129.546	-16.5461	-24.8026	216.042	-15.7631	-5.95203	222.661	-19.1796	19.4559	217.589	16.0378	3.50086	
38	0.316667	188.038	36.0318	22.009	162.125	42.3085	-0.426791	142.092	48.26	-25.5682	126.692	48.9561	-37.869	186.319	25.0047	-59.6571	169.562	28.0404	-80.4376	147.086	26.8934	-95.2691	178.28	2.75233	-59.6902	146.489	7.81682	-66.6153	118.115	12.1179	-37.6019	173.209	-11.9483	-52.4886	144.744	-13.4712	-53.4081	127.284	-2.75344	-26.3702	176.307	-32.0474	-37.7396	149.579	-30.8324	-42.6037	133.867	-15.9388	-23.5201	214.75	-14.1795	-6.17203	222.442	-15.1563	19.2885	220.076	16.2171	4.34204	
39	0.325	187.311	39.6673	22.0141	162.435	41.5444	-4.73638	144.522	44.8798	-26.1151	128.26	47.8982	-38.3299	189.845	29.1801	-54.3147	172.711	31.3727	-78.2767	149.037	30.9083	-94.2538	178.038	8.65187	-61.3907	143.914	8.27845	-63.7675	122.452	10.4588	-31.7346	172.792	-13.4488	-52.4527	143.599	-9.59344	-50.2402	131.929	-0.910259	-19.6952	177.109	-27.7661	-39.7726	147.886	-26.5718	-41.4151	137.285	-13.4585	-16.2302	215.967	-16.2249	-7.56162	222.58	-18.1904	22.7507	220.827	18.5393	4.90963	
40	0.333333	188.043	38.4095	19.5573	163.057	40.6172	-1.59645	143.925	46.6682	-23.5041	129.997	47.3028	-40.6877	190.987	30.1201	-55.4775	172.123	28.8859	-77.2624	146.01	28.9756	-93.4401	179.825	5.44659	-59.2433	148.166	10.0262	-62.8813	126.05	11.0557	-28.3807	176.72	-14.3549	-48.7976	145.23	-9.6116	-48.0024	135.613	-4.31049	-17.0245	176.537	-32.2173	-39.4686	147.975	-27.0705	-38.3487	140.827	-15.4536	-12.4318	216.997	-13.1509	-8.10123	225.165	-17.2813	21.4954	219.53	15.48	6.97444	
41	0.341667	188.48	35.907	20.3648	162.742	41.8153	0.656312	145.096	44.4498	-25.1663	128.209	47.3016	-42.9175	190.821	32.4672	-56.2039	170.695	31.7391	-77.5489	148.053	33.2684	-90.2398	178.054	9.51953	-61.1626	146.27	7.98481	-60.2721	130.359	7.88137	-23.5717	174.523	-12.6082	-51.4029	146.766	-8.35133	-48.0037	142.291	-3.02075	-11.3138	178.662	-31.8259	-38.6648	149.311	-21.8202	-37.3932	145.039	-15.538	-11.3333	219.813	-14.39	-6.99179	222.816	-17.0301	18.9954	220.613	19.2957	7.90214	
42	0.35	189.384	34.2893	18.8435	163.704	39.2606	-0.0905121	144.017	45.2697	-25.83	128.05	47.3972	-43.8914	188.347	28.9591	-58.4865	170.421	30.8451	-75.2976	146.183	31.9139	-87.7557	177.869	7.24375	-60.9888	148.143	8.14399	-60.3586	132.964	9.39034	-22.2096	176.719	-8.45186	-50.2427	146.08	-7.90507	-44.3069	143.979	-0.342556	-13.5441	178.598	-31.7429	-40.3415	150.689	-25.8513	-38.9768	148.519	-13.5932	-9.27442	220.477	-13.9142	-7.86409	224.37	-18.4559	17.9428	220.638	18.6855	4.24431	
43	0.358333	188.907	36.936	19.3936	164.363	37.6889	-1.69101	145.14	43.0807	-24.0577	130.461	44.0058	-40.5924	191.08	28.3955	-54.7396	166.611	34.0425	-77.7674	145.116	33.7465	-86.8525	181.591	9.04398	-56.9212	146.867	13.3557	-57.5432	135.792	12.8587	-21.1216	178.742	-9.56098	-50.4932	146.154	-6.08792	-41.6029	148.53	-3.73276	-10.3469	178.319	-31.096	-42.7123	152.275	-21.881	-38.99	152.066	-13.3866	-9.99479	220.697	-13.1499	-7.82378	226.128	-17.4225	17.954	221.804	14.9529	7.75152	
44	0.366667	189.557	32.8635	16.3498	165.245	37.6487	-1.17447	145.488	42.5304	-23.4722	129.511	44.2704	-41.1264	188.83	30.9263	-59.2059	168.782	34.7427	-74.8749	142.575	30.1866	-86.0273	179.067	10.9193	-58.4674	146.25	10.5152	-55.0653	138.845	12.5912	-16.8855	174.762	-9.23351	-51.6519	145.928	-5.09604	-40.596	151.293	-1.98816	-9.69638	179.372	-26.1076	-41.3375	151.775	-21.6815	-37.045	154.936	-9.71982	-11.9121	221.568	-13.9272	-12.6117	225.042	-18.2785	21.5021	222.672	17.4677	7.92693	
45	0.375	189.743	33.7759	17.2597	163.876	39.4921	-4.13406	144.155	45.4497	-25.9768	127.851	46.4408	-43.1447	190.942	29.0914	-55.2971	167.264	35.8224	-73.5593	140.226	33.8867	-85.3441	180.35	12.4235	-58.3752	148.035	14.7511	-56.7392	140.195	11.9762	-16.2809	179.239	-7.33851	-49.2863	147.003	-4.75284	-40.5975	151.939	0.486371	-8.81845	178.34	-29.171	-43.5994	154.783	-21.1233	-40.6301	153.584	-13.5296	-8.81516	220.646	-10.989	-9.72404	227.372	-20.099	21.4999	222.96	20.8836	4.97172	
46	0.383333	188.67	36.8311	17.6709	164.583	38.3596	-3.26824	142.634	44.1737	-28.0525	129.871	42.867	-40.2267	188.769	33.1303	-55.3757	166.513	32.5558	-73.0949	138.831	31.0397	-85.2296	180.489	10.6655	-57.5597	146.556	13.9232	-54.6862	140.654	11.8044	-16.3522	179.4	-7.29472	-49.8051	147.268	-4.52164	-40.7011	153.565	1.22892	-8.73351	178.22	-30.743	-44.541	151.39	-22.2064	-36.143	155.713	-10.3963	-12.0148	219.192	-15.6777	-13.2902	226.909	-19.311	16.8483	223.139	16.7559	5.20994	
47	0.391667	190.187	32.8709	20.4495	162.62	40.4523	-2.87416	143.042	44.8852	-24.5513	130.107	40.4634	-43.1477	188.711	33.5182	-54.2688	165.389	30.3984	-73.9166	141.776	34.4827	-84.222	178.239	7.87774	-58.4433	144.105	11.8438	-52.124	140.318	12.8601	-12.7222	178.966	-9.49567	-49.5287	146.655	-8.67674	-38.664	153.061	-0.50971	-9.34296	179.171	-29.4622	-43.0776	154.291	-20.242	-39.6975	154.451	-10.1993	-12.3124	221.84	-15.8173	-10.1565	227.503	-16.684	21.209	223.223	17.6973	9.05727	
